<?xml version="1.0" encoding="utf-8"?>
<!-- Generator: Adobe Illustrator 19.0.0, SVG Export Plug-In . SVG Version: 6.00 Build 0)  -->
<svg version="1.1" id="圖層_1" xmlns="http://www.w3.org/2000/svg" xmlns:xlink="http://www.w3.org/1999/xlink" x="0px" y="0px"
	 viewBox="0 0 595.3 274" style="enable-background:new 0 0 595.3 274;" xml:space="preserve">
<style type="text/css">
	.st0{fill:#172230;}
	.st1{fill:#F6F61A;}
	.st2{fill:#FFFFFF;}
	.st3{fill:#DCDEE0;}
</style>
<g id="XMLID_115345_">
	<g id="XMLID_115380_">
		<g id="XMLID_115411_">
			<polygon id="XMLID_115413_" class="st0" points="56.6,67.3 39.9,67 54.5,58.9 49.6,42.9 61.9,54.3 75.6,44.7 68.5,59.9 
				81.9,69.9 65.3,67.9 59.9,83.8 			"/>
			<polygon id="XMLID_115412_" class="st1" points="54.5,50.6 61.7,57.3 69.7,51.7 65.6,60.6 73.5,66.5 63.7,65.3 60.5,74.6 
				58.6,65 48.8,64.8 57.4,60 			"/>
		</g>
		<g id="XMLID_115408_">
			<polygon id="XMLID_115410_" class="st0" points="505.1,52.9 498.6,37.4 512,47.5 524.6,36.5 519.2,52.4 533.5,61 516.8,60.7 
				513,77 508.1,61 491.4,62.5 			"/>
			<polygon id="XMLID_115409_" class="st1" points="519.5,44.1 516.3,53.4 524.7,58.5 514.9,58.3 512.7,67.9 509.8,58.5 500,59.4 
				508.1,53.7 504.2,44.6 512.1,50.6 			"/>
		</g>
		<g id="XMLID_115405_">
			<polygon id="XMLID_115407_" class="st0" points="533.1,191.9 526.6,176.5 540,186.6 552.6,175.6 547.2,191.4 561.5,200.1 
				544.8,199.8 541,216.1 536.1,200.1 519.4,201.6 			"/>
			<polygon id="XMLID_115406_" class="st1" points="547.5,183.2 544.3,192.5 552.7,197.5 542.9,197.4 540.7,207 537.8,197.6 
				528,198.4 536.1,192.8 532.2,183.7 540.1,189.6 			"/>
		</g>
		<g id="XMLID_115402_">
			<polygon id="XMLID_115404_" class="st0" points="167.1,245 174,232.5 174.3,246.8 188.3,249.5 174.8,254.2 176.6,268.3 168,257 
				155.1,263 163.2,251.3 153.4,240.9 			"/>
			<polygon id="XMLID_115403_" class="st1" points="180.5,250 172.6,252.8 173.7,261.1 168.6,254.4 161,258 165.8,251.1 160.1,245 
				168.1,247.4 172.1,240.1 172.3,248.5 			"/>
		</g>
		<g id="XMLID_115399_">
			<polygon id="XMLID_115401_" class="st0" points="265.8,38.5 276.4,33.3 269.8,43.2 278.1,51.7 266.7,48.4 261.1,58.9 260.7,47.1 
				249,45 260.1,40.9 258.5,29.2 			"/>
			<polygon id="XMLID_115400_" class="st1" points="272.5,48.4 265.8,46.5 262.6,52.6 262.3,45.7 255.4,44.4 262,42.1 261,35.2 
				265.3,40.6 271.6,37.6 267.7,43.4 			"/>
		</g>
		<g id="XMLID_115396_">
			<polygon id="XMLID_115398_" class="st0" points="67.5,181.2 74.2,177.7 70.2,184.1 75.5,189.3 68.3,187.5 64.9,194.2 64.4,186.7 
				57,185.6 64,182.8 62.8,175.4 			"/>
			<polygon id="XMLID_115397_" class="st1" points="72,187.3 67.7,186.2 65.7,190.2 65.5,185.8 61.1,185.1 65.2,183.5 64.5,179.2 
				67.3,182.6 71.2,180.5 68.8,184.2 			"/>
		</g>
		<g id="XMLID_115393_">
			<polygon id="XMLID_115395_" class="st0" points="139.6,248.5 147.5,244.4 142.7,252 149.1,258.2 140.4,256 136.4,264 
				135.9,255.1 127,253.8 135.4,250.5 133.9,241.6 			"/>
			<polygon id="XMLID_115394_" class="st1" points="144.8,255.8 139.8,254.5 137.4,259.2 137.1,254 131.9,253.2 136.8,251.3 
				135.9,246.1 139.3,250.1 143.9,247.7 141.1,252.1 			"/>
		</g>
		<g id="XMLID_115390_">
			<polygon id="XMLID_115392_" class="st0" points="524.1,223.3 532,219.2 527.2,226.7 533.6,233 524.9,230.8 520.9,238.8 
				520.4,229.9 511.5,228.5 519.9,225.3 518.4,216.4 			"/>
			<polygon id="XMLID_115391_" class="st1" points="529.3,230.6 524.3,229.3 521.9,234 521.6,228.8 516.4,228 521.3,226.1 
				520.4,220.9 523.8,224.9 528.4,222.5 525.6,226.9 			"/>
		</g>
		<g id="XMLID_115387_">
			<polygon id="XMLID_115389_" class="st0" points="100.7,63.3 107.3,59.8 103.3,66.1 108.7,71.4 101.4,69.5 98,76.3 97.6,68.8 
				90.1,67.6 97.1,64.9 95.9,57.5 			"/>
			<polygon id="XMLID_115388_" class="st1" points="105.1,69.4 100.8,68.3 98.8,72.2 98.6,67.8 94.2,67.2 98.3,65.6 97.6,61.2 
				100.4,64.6 104.3,62.6 101.9,66.3 			"/>
		</g>
		<g id="XMLID_115384_">
			<polygon id="XMLID_115386_" class="st0" points="336.2,48.6 343.4,50.6 336.2,52.5 336.5,60 332.5,53.7 325.4,56.4 330.2,50.5 
				325.5,44.7 332.5,47.4 336.6,41.1 			"/>
			<polygon id="XMLID_115385_" class="st1" points="335.3,56.1 332.9,52.4 328.8,54 331.5,50.6 328.8,47.1 332.9,48.7 335.3,45 
				335.1,49.4 339.3,50.6 335.1,51.7 			"/>
		</g>
		<g id="XMLID_115381_">
			<polygon id="XMLID_115383_" class="st0" points="46.6,159.1 50.2,149.5 51.9,159.6 62.1,160 53.1,164.8 55.8,174.6 48.5,167.5 
				40,173.2 44.5,164 36.5,157.6 			"/>
			<polygon id="XMLID_115382_" class="st1" points="56.7,161.2 51.3,164 53,169.8 48.7,165.6 43.7,168.9 46.3,163.6 41.6,159.8 
				47.6,160.7 49.7,155 50.7,161 			"/>
		</g>
	</g>
	<g id="XMLID_115364_">
		<path id="XMLID_115379_" class="st0" d="M206,219.1c-25.2,1.2-50.2-18.4-50.7-43.3c-7.1,4.7-18.2,9.3-26.8,10.1
			c-0.7,0.1-1.3,0.1-2,0.1c-28.1,1.4-52-19.5-54.4-47.5c-2.5-28.6,19.2-56.9,47.8-59.3c0.7-0.1,1.3-0.1,2-0.1
			c7.5-0.4,18.7,3.4,25.6,6.2c4.2-26.4,24.5-51.1,51.8-53.4c0.8-0.1,1.5-0.1,2.2-0.2c24.5-1.2,49.5,15.6,57,37.9
			c7.3-3.9,12.1-5.6,19.8-4.1c7,1.4,14.5,4.3,18.1,10.7c5-5.7,12.1-12.2,19.7-12.9c0.4,0,0.7-0.1,1.1-0.1c6.7-0.3,13,3.1,18.4,7
			c6.6-10.2,16.7-21.1,33.1-22.8c1-0.1,1.9-0.2,2.9-0.2c19.5-0.9,32.7,12.4,39.1,32.1c3.8-3.1,8.4-6.6,13.4-7.1c0.3,0,0.6,0,0.9-0.1
			c5.4-0.3,11.5,1.7,15.4,6.3c5.3-4.1,12-10.4,18.7-11c0.4,0,0.9-0.1,1.3-0.1c15.3-0.7,30.1,7.8,35.3,22.4
			c3.4,9.5-0.2,16.6-0.3,18.2c16.6,10,27.4,20,29,37.9c2.3,26.6-18.9,52.6-45.6,54.9c-0.6,0-1.1,0.1-1.7,0.1
			c-9.7,0.5-23.2-4.8-32.9-13c-4.4,8.3-15.6,13.5-24.3,14.3c-0.5,0-1.1,0.1-1.6,0.1c-9.3,0.5-19.5-5.3-25.5-12.5
			c-7.2,11.7-23.2,20-36.8,21.2c-0.8,0.1-1.5,0.1-2.2,0.2c-17.5,0.9-35.4-8.2-45.2-22c-4.4,16.9-20.9,22.7-31.2,23.6
			c-0.5,0-1,0.1-1.4,0.1c-10.3,0.5-24.4-6-32.2-14.8c-8.6,10.1-22.2,19.9-35.7,21.1C207.3,219.1,206.7,219.1,206,219.1z"/>
		<path id="XMLID_115377_" class="st2" d="M518.2,146.7c-1.3-14.8-7.1-27.2-26.2-38c0.3-2.2,0.4-4.6,0.2-6.9
			c-1.5-17-16.5-29.6-33.5-28.2c-7.3,0.6-13.8,3.8-18.7,8.5c-4.1-3.9-9.7-6-15.7-5.5c-7.1,0.6-12.9,4.8-16.1,10.6
			c-4-21.6-16.7-36.6-40.4-34.2c-16.9,1.7-24.7,12.8-31.3,24c-5.1-5.4-12.4-8.5-20.3-7.8c-8.3,0.7-15.3,5.4-19.3,12.1
			c-7.2-7.2-17.4-11.3-28.3-10.4c-4.4,0.4-8.6,1.6-12.4,3.4c-8.2-20-30.9-37.9-56.1-35.7C172.4,41,155.7,61,150.9,90.6
			c-8-4.5-18.2-6.7-28.1-5.9c-26.2,2.3-45.6,25.3-43.3,51.5c2.3,26.2,25.3,45.6,51.5,43.3c10.7-0.9,20.3-5.3,27.7-12
			c0,0.4,0,0.8,0.1,1.2c2.2,25.5,24.7,44.5,50.2,42.3c14.7-1.3,27.3-9.3,34.8-20.8c5.4,10.8,20.2,15.9,32,14.8
			c13.9-1.2,25.6-6.6,31.4-24.7c10.9,15.2,29.3,24.4,49.2,22.7c14.4-1.2,27-7.9,35.9-17.9c7.5,6.3,17.3,9.7,27.8,8.8
			c9.5-0.8,17.9-5.1,24.1-11.5c8.8,9.4,23,12.7,33.9,11.8C502.4,192.3,520.3,171,518.2,146.7z"/>
		<path id="XMLID_115376_" class="st3" d="M518.2,146.7c-0.4-4.9-1.4-9.5-3.1-13.9c-2.2,15.3-10.8,29.8-23.7,38.5
			c-16.1,11-36.1,11.2-53.7,2.6c-14.1,12.3-38.8,11.3-48-3.9c-10.6,21.1-52.4,25.3-71.6,7.5c-4,1.1-12.8,2.4-16.4,3.5
			c-2.8,0.8-7,15.9-32.4,13.2c-9.7-1-18.5-7.2-22.2-16.2c-10.8,16.5-32.5,25-51.7,20.4c-19.2-4.7-34.5-22.2-36.5-41.8
			c-17.8,10.3-41.5,9.6-58.6-1.8c-6.2-4.2-11.5-9.7-15.5-15.9c-2.5-3.9-3.9-8.2-5.3-12.4c-0.4,3.2-0.4,6.4-0.2,9.7
			c2.3,26.2,25.3,45.6,51.5,43.3c10.7-0.9,20.3-5.3,27.7-12c0,0.4,0,0.8,0.1,1.2c2.2,25.5,24.7,44.5,50.2,42.3
			c14.7-1.3,27.3-9.3,34.8-20.8c5.4,10.8,20.2,15.9,32,14.8c13.9-1.2,25.6-6.6,31.4-24.7c10.9,15.2,29.3,24.4,49.2,22.7
			c14.4-1.2,27-7.9,35.9-17.9c7.5,6.3,17.3,9.7,27.8,8.8c9.5-0.8,17.9-5.1,24.1-11.5c8.8,9.4,23,12.7,33.9,11.8
			C502.4,192.3,520.3,171,518.2,146.7z"/>
		<path id="XMLID_115375_" class="st0" d="M151.9,85.2c-0.5,2-0.8,4.3-1,6.5c-0.1,2.3-0.2,4.5,0,6.8c0.1,2.3,0.4,4.6,0.9,6.8
			c0.5,2.2,1.2,4.4,2.6,6.3c-1.7-1.7-2.8-3.8-3.7-6c-0.9-2.2-1.5-4.5-2.1-6.8c-0.5-2.3-0.9-4.7-1.1-7.1c-0.2-2.4-0.3-4.8-0.1-7.4
			L151.9,85.2z"/>
		<path id="XMLID_115374_" class="st0" d="M412.7,81.6c-2,1.5-3.8,4.1-5.2,6.8c-1.4,2.7-2.6,5.6-3.4,8.6c0.1-3.1,0.6-6.3,1.3-9.4
			c0.4-1.6,0.9-3.1,1.5-4.7c0.6-1.5,1.4-3.1,2.6-4.5L412.7,81.6z"/>
		<path id="XMLID_115373_" class="st0" d="M438.7,77c2.1,2.1,3.8,4.6,4.7,7.3c1,2.7,1.3,5.5,1.1,8.2c-0.4-2.7-1.4-5.3-2.7-7.5
			c-1.4-2.2-3.7-4.4-6.7-6.5L438.7,77z"/>
		<path id="XMLID_115372_" class="st0" d="M449.5,191.5c-3.1-1.7-5-3.5-6.7-5.7c-1.6-2.1-3-4.4-4.2-6.7c-1.2-2.3-2.2-4.8-2.9-7.3
			c-0.7-2.5-1.3-5.1-1.3-7.6c0.4,2.5,1.3,4.9,2.4,7.2c1.1,2.3,2.4,4.5,3.8,6.5c1.5,2,3.1,4,4.8,5.6c1.8,1.7,3.6,3.5,5.6,4.5
			L449.5,191.5z"/>
		<path id="XMLID_115371_" class="st0" d="M238.5,196.8c1.5-1.4,2.9-3.4,4-5.5c1.1-2.1,2-4.4,2.7-6.8c0.7-2.4,1.2-4.8,1.4-7.2
			c0.2-2.5,0.2-5-0.4-7.4c0.9,2.3,1.3,4.9,1.5,7.4c0.1,2.6,0,5.1-0.3,7.7c-0.4,2.6-0.9,5.1-1.8,7.6c-0.9,2.5-2,5-3.8,7.3
			L238.5,196.8z"/>
		<path id="XMLID_115370_" class="st0" d="M155.8,178.2c0-2.5,0.1-4.8,0.4-7.2c0.2-2.3,0.6-4.7,1-7c0.9-4.6,2.2-9.2,4.6-13.2
			c-1.7,4.3-2.2,8.9-2.4,13.5c-0.1,2.3,0,4.5,0.1,6.8c0.1,2.3,0.4,4.5,0.7,6.6L155.8,178.2z"/>
		<path id="XMLID_115369_" class="st0" d="M383.1,105.6c1.9-3.6,5.2-6.4,8.9-8.2c3.7-1.8,8-2.8,12.4-2.1c4.4,0.7,8.3,3.2,11,6.4
			c2.7,3.2,4.4,7.1,4.9,11c-2.2-3.3-4.6-6.3-7.3-8.6c-2.8-2.3-5.9-3.9-9.3-4.4c-3.3-0.5-6.9-0.1-10.4,1
			C389.8,101.8,386.4,103.3,383.1,105.6z"/>
		<path id="XMLID_115368_" class="st0" d="M145.7,131.5c-1.1-3.9-1.3-8.2-0.2-12.3c1-4.1,3.3-8.1,6.6-11c3.3-2.9,7.9-4.6,12.3-4.3
			c4.4,0.3,8.3,2.1,11.5,4.7c-4-0.9-7.8-1.6-11.4-1.2c-3.6,0.4-6.8,1.9-9.4,4.2c-2.7,2.4-4.8,5.3-6.2,8.7
			C147.4,123.7,146.5,127.5,145.7,131.5z"/>
		<path id="XMLID_115367_" class="st0" d="M256.6,65.1c1.3,2.7,2,5.3,2.5,7.9c0.5,2.6,0.8,5.2,0.9,7.9c0.1,2.6,0.1,5.2-0.1,7.8
			c-0.2,2.6-0.6,5.2-1.5,7.6c0.6-2.5,0.6-5.1,0.4-7.6c-0.2-2.5-0.5-5.1-1-7.5c-0.5-2.5-1.1-4.9-2-7.3c-0.8-2.3-1.8-4.6-3.1-6.4
			L256.6,65.1z"/>
		<path id="XMLID_115366_" class="st3" d="M303.5,173.8c-12,0.8-23.1-0.6-35.7-12.8c0,0,11.7,20.3,33.3,20.4
			c12.6,0.1,26.1-6.7,31.1-18.1C321.8,170.2,314.4,173.1,303.5,173.8z"/>
		<path id="XMLID_115365_" class="st0" d="M332.6,162.7c-2.5,6.4-7.2,11.9-13.2,15.7c-6,3.8-13.2,5.6-20.4,5.4
			c-7.2-0.3-14.2-2.8-19.8-7c-5.7-4.2-10-10.1-11.9-16.7c3.6,5.7,8.4,10.5,13.9,13.8c2.8,1.6,5.7,3,8.7,3.9c3,0.9,6.2,1.5,9.3,1.6
			c6.3,0.3,12.7-1.1,18.5-3.9C323.4,172.4,328.5,168.1,332.6,162.7z"/>
	</g>
	<polygon id="XMLID_115363_" class="st0" points="507.7,100.8 554.1,63.3 560,71.7 	"/>
	<polygon id="XMLID_115362_" class="st0" points="517,107.2 557.4,101.6 557.9,108.6 	"/>
	<polygon id="XMLID_115361_" class="st0" points="150.1,191.1 124.7,225.6 117.3,218.6 	"/>
	<polygon id="XMLID_115360_" class="st0" points="140.5,189.4 104.7,208.9 101.8,202.6 	"/>
	<polygon id="XMLID_115359_" class="st0" points="137.9,72.1 107.4,45.1 112.4,40.2 	"/>
	<polygon id="XMLID_115357_" class="st0" points="415.3,66.6 433.9,30.3 439.9,33.9 	"/>
	<polygon id="XMLID_115356_" class="st0" points="240.8,206.8 232.1,246.6 225.4,244.7 	"/>
	<polygon id="XMLID_115354_" class="st0" points="246.8,211.2 253.4,240.4 248.4,241.2 	"/>
	<polygon id="XMLID_115353_" class="st0" points="294,65.2 290.4,35.4 295.5,35.2 	"/>
	<polygon id="XMLID_115352_" class="st0" points="299,66.3 307.2,26 314,28.2 	"/>
	<polygon id="XMLID_115351_" class="st0" points="391.9,196.6 400.7,230.9 394.6,231.8 	"/>
	<polygon id="XMLID_115350_" class="st0" points="451.2,195.7 468.1,226.9 462.4,229.2 	"/>
	<polygon id="XMLID_115349_" class="st0" points="446.5,199.8 449.8,229.9 445.7,229.9 	"/>
	<g id="XMLID_115346_">
		<polygon id="XMLID_115348_" class="st0" points="317,225.1 328.3,221.4 320.4,230.2 327.4,239.8 316.6,235 309.7,244.6 
			310.8,232.8 299.5,229.2 311.1,226.7 311,214.8 		"/>
		<polygon id="XMLID_115347_" class="st1" points="322.4,235.7 316,232.9 311.9,238.6 312.6,231.6 306,229.5 312.8,228 312.8,221.1 
			316.3,227.1 322.9,224.9 318.3,230.1 		"/>
	</g>
</g>
</svg>
